<svg width="86" height="53" viewBox="0 0 86 53" fill="none" xmlns="http://www.w3.org/2000/svg">
<g clip-path="url(#clip0_28_298)">
<g filter="url(#filter0_d_28_298)">
<path d="M4.92641 15.5252C4.95998 15.5258 4.99331 15.5195 5.02435 15.5066C5.05539 15.4937 5.08349 15.4745 5.1069 15.4503C5.13096 15.4267 5.14997 15.3983 5.16275 15.367C5.17553 15.3357 5.18182 15.3021 5.18122 15.2683V9.42219C5.18122 9.35099 5.21679 9.31513 5.2874 9.31513H6.62517C6.66764 9.31513 6.70321 9.3435 6.73135 9.40078L8.87604 15.3111C8.91851 15.454 9.01778 15.5252 9.17332 15.5252H11.7639C11.9195 15.5252 11.9975 15.461 11.9975 15.3325C11.9988 15.2956 11.9915 15.259 11.9763 15.2254L9.55555 9.07957C9.52741 9.00837 9.54864 8.95804 9.61925 8.92967C10.3412 8.6015 10.9002 8.10148 11.2968 7.43068C11.6933 6.75988 11.8913 5.96756 11.8913 5.05371C11.8913 4.16877 11.7146 3.38341 11.3605 2.69816C11.0225 2.02979 10.4986 1.47536 9.85283 1.1028C9.20146 0.724306 8.45825 0.535327 7.6232 0.535327H2.44196C2.4084 0.534727 2.37507 0.541067 2.34403 0.553958C2.31298 0.566848 2.28489 0.586015 2.26147 0.610276C2.23741 0.633889 2.21841 0.662221 2.20563 0.693527C2.19284 0.724832 2.18656 0.758446 2.18715 0.792296V15.2683C2.18715 15.3395 2.2121 15.4005 2.26147 15.4503C2.31084 15.5001 2.37136 15.5252 2.44196 15.5252H4.92641V15.5252ZM7.1348 7.0024H5.2874C5.21679 7.0024 5.18122 6.96653 5.18122 6.89533V3.23351C5.18122 3.16231 5.21679 3.12644 5.2874 3.12644H7.1348C7.65877 3.12644 8.08346 3.3015 8.40888 3.65108C8.7343 4.00067 8.89727 4.47553 8.89727 5.07512C8.89727 5.66027 8.7343 6.12816 8.40888 6.47775C8.08346 6.82734 7.65877 7.0024 7.1348 7.0024V7.0024ZM18.3891 15.718C19.3659 15.718 20.2296 15.5183 20.9797 15.1184C21.7299 14.7184 22.3106 14.1547 22.721 13.4266C23.1313 12.6986 23.3368 11.849 23.3368 10.8784V5.1822C23.3368 4.22552 23.1313 3.38341 22.721 2.65533C22.3106 1.92725 21.7299 1.36352 20.9797 0.963609C20.2296 0.5637 19.3659 0.364014 18.3891 0.364014C17.4123 0.364014 16.5523 0.5637 15.8091 0.963609C15.0824 1.34721 14.4813 1.93477 14.0785 2.65533C13.6682 3.38341 13.4627 4.22552 13.4627 5.1822V10.8784C13.4627 11.849 13.6682 12.6986 14.0785 13.4266C14.4813 14.1472 15.0824 14.7348 15.8091 15.1184C16.5523 15.5183 17.4123 15.718 18.3891 15.718V15.718ZM18.3891 13.1268C17.8089 13.1268 17.3417 12.9304 16.9876 12.538C16.6336 12.1455 16.4568 11.6348 16.4568 11.0068V5.09654C16.4568 4.45411 16.6336 3.93643 16.9876 3.54401C17.3417 3.1516 17.8089 2.95512 18.3891 2.95512C18.9837 2.95512 19.4578 3.1516 19.8118 3.54401C20.1659 3.93643 20.3427 4.45411 20.3427 5.09654V11.0068C20.3427 11.6348 20.1659 12.1455 19.8118 12.538C19.4578 12.9304 18.9837 13.1268 18.3891 13.1268V13.1268ZM29.9407 15.6965C30.9032 15.6965 31.7526 15.5076 32.4889 15.1291C33.2252 14.7506 33.7948 14.212 34.1983 13.5123C34.6017 12.8126 34.8034 12.0063 34.8034 11.0925V11.0283C34.804 10.9944 34.7978 10.9608 34.785 10.9295C34.7722 10.8982 34.7532 10.8698 34.7291 10.8462C34.7057 10.822 34.6776 10.8028 34.6466 10.7899C34.6155 10.777 34.5822 10.7707 34.5486 10.7713L32.0642 10.6642C31.8943 10.6642 31.8094 10.7429 31.8094 10.8998V11.1782C31.8094 11.7633 31.6395 12.2312 31.2997 12.5808C30.96 12.9304 30.5072 13.1054 29.9407 13.1054C29.3743 13.1054 28.9215 12.9304 28.5817 12.5808C28.242 12.2312 28.0721 11.7633 28.0721 11.1782V4.90381C28.0721 4.31867 28.242 3.84756 28.5817 3.49048C28.9215 3.1334 29.3743 2.95512 29.9407 2.95512C30.5072 2.95512 30.96 3.1334 31.2997 3.49048C31.6395 3.84756 31.8094 4.31867 31.8094 4.90381V5.1822C31.8094 5.33905 31.8943 5.41775 32.0642 5.41775L34.5486 5.31068C34.5831 5.31088 34.6173 5.30329 34.6485 5.28847C34.6797 5.27365 34.7073 5.25197 34.7291 5.22502C34.7769 5.17241 34.8034 5.10365 34.8034 5.0323V4.92523C34.8034 4.01138 34.6017 3.21209 34.1983 2.52684C33.7948 1.84159 33.2252 1.30998 32.4889 0.931488C31.7526 0.552993 30.9032 0.364014 29.9407 0.364014C28.9783 0.364014 28.1289 0.556741 27.3926 0.942195C26.6563 1.32765 26.0867 1.87371 25.6832 2.58038C25.2797 3.28704 25.078 4.10453 25.078 5.0323V10.9854C25.078 11.9277 25.2797 12.7558 25.6832 13.4695C26.0798 14.1767 26.6744 14.7502 27.3926 15.1184C28.1289 15.5038 28.9783 15.6965 29.9407 15.6965V15.6965ZM39.4538 15.5252C39.4874 15.5258 39.5207 15.5195 39.5518 15.5066C39.5828 15.4937 39.6109 15.4745 39.6343 15.4503C39.6584 15.4267 39.6774 15.3983 39.6902 15.367C39.7029 15.3357 39.7092 15.3021 39.7086 15.2683V10.9854C39.7086 10.9571 39.723 10.9142 39.7511 10.8569L40.7067 9.46502C40.7348 9.4222 40.7635 9.40078 40.7916 9.40078C40.8197 9.40078 40.841 9.4222 40.8553 9.46502L43.8706 15.3325C43.9412 15.461 44.0405 15.5252 44.1679 15.5252H46.8859C47.0415 15.5252 47.1195 15.4679 47.1195 15.3539C47.1143 15.3086 47.0999 15.2648 47.077 15.2254L42.9151 7.13088C42.9008 7.08194 42.9008 7.02992 42.9151 6.98098L46.8434 0.835124C46.9002 0.749468 46.9109 0.678266 46.8753 0.620983C46.8397 0.5637 46.7728 0.535327 46.6736 0.535327H43.9343C43.874 0.534044 43.8145 0.549305 43.7622 0.579478C43.7098 0.609652 43.6665 0.653604 43.637 0.70664L39.836 6.53129C39.8217 6.57411 39.7973 6.58857 39.7617 6.57411C39.7262 6.55966 39.7086 6.53129 39.7086 6.48846V0.792296C39.7092 0.758446 39.7029 0.724832 39.6902 0.693527C39.6774 0.662221 39.6584 0.633889 39.6343 0.610276C39.6109 0.586015 39.5828 0.566848 39.5518 0.553958C39.5207 0.541067 39.4874 0.534727 39.4538 0.535327H36.9694C36.9358 0.534727 36.9025 0.541067 36.8714 0.553958C36.8404 0.566848 36.8123 0.586015 36.7889 0.610276C36.7648 0.633889 36.7458 0.662221 36.733 0.693527C36.7203 0.724832 36.714 0.758446 36.7146 0.792296V15.2683C36.7146 15.3395 36.7395 15.4005 36.7889 15.4503C36.8383 15.5001 36.8988 15.5252 36.9694 15.5252H39.4538V15.5252ZM4.86271 32.6565C4.89627 32.6571 4.9296 32.6508 4.96065 32.6379C4.99169 32.625 5.01979 32.6059 5.0432 32.5816C5.06726 32.558 5.08626 32.5296 5.09905 32.4983C5.11183 32.467 5.11812 32.4334 5.11752 32.3996V26.8319C5.11752 26.7607 5.15309 26.7248 5.22369 26.7248H7.51703C8.36641 26.7248 9.12024 26.5391 9.77851 26.1681C10.4292 25.8047 10.9606 25.2577 11.3074 24.5941C11.6684 23.9158 11.8489 23.1342 11.8489 22.2493C11.8489 21.3499 11.6684 20.5506 11.3074 19.8509C10.9464 19.1512 10.4368 18.6089 9.77851 18.2234C9.12024 17.838 8.36641 17.6452 7.51703 17.6452H2.37826C2.3447 17.6446 2.31136 17.651 2.28032 17.6639C2.24928 17.6767 2.22118 17.6959 2.19777 17.7202C2.17371 17.7438 2.1547 17.7721 2.14192 17.8034C2.12914 17.8347 2.12285 17.8683 2.12345 17.9022V32.3996C2.12345 32.4708 2.1484 32.5318 2.19777 32.5816C2.24714 32.6314 2.30766 32.6565 2.37826 32.6565H4.86271V32.6565ZM7.02863 24.3264H5.22369C5.15309 24.3264 5.11752 24.2906 5.11752 24.2194V20.3648C5.11752 20.2936 5.15309 20.2577 5.22369 20.2577H7.02863C7.58073 20.2577 8.02294 20.4435 8.35579 20.8145C8.68865 21.1855 8.8548 21.6855 8.8548 22.3135C8.8548 22.9276 8.68865 23.4163 8.35579 23.7804C8.02294 24.1444 7.58073 24.3264 7.02863 24.3264V24.3264ZM15.5862 32.6565C15.7279 32.6565 15.8197 32.5853 15.8622 32.4424L16.3506 30.3438C16.3649 30.2865 16.4 30.2582 16.4568 30.2582H20.4276C20.4844 30.2582 20.5195 30.2865 20.5338 30.3438L21.0222 32.4424C21.0647 32.5853 21.164 32.6565 21.3195 32.6565H23.9101C24.0657 32.6565 24.1437 32.5923 24.1437 32.4638L24.1225 32.3782L20.3002 17.8808C20.2578 17.7378 20.1585 17.6666 20.003 17.6666H16.9239C16.7684 17.6666 16.6691 17.7378 16.6267 17.8808L12.8044 32.3782C12.762 32.5639 12.8326 32.6565 13.0168 32.6565H15.5862V32.6565ZM19.8331 27.924H17.0301C16.9991 27.923 16.9692 27.9117 16.9452 27.8919C16.917 27.8705 16.9096 27.8384 16.9239 27.7955L18.3467 21.5854C18.361 21.5281 18.3822 21.4998 18.4104 21.4998C18.4385 21.4998 18.4597 21.5281 18.4741 21.5854L19.9392 27.7955C19.9536 27.8384 19.9461 27.8705 19.918 27.8919C19.894 27.9117 19.8641 27.923 19.8331 27.924V27.924ZM28.3906 32.6565C28.4242 32.6571 28.4575 32.6508 28.4885 32.6379C28.5196 32.625 28.5477 32.6059 28.5711 32.5816C28.5952 32.558 28.6142 32.5296 28.6269 32.4983C28.6397 32.467 28.646 32.4334 28.6454 32.3996V26.8319C28.6454 26.7607 28.681 26.7248 28.7516 26.7248H31.0449C31.8943 26.7248 32.6481 26.5391 33.3064 26.1681C33.9571 25.8047 34.4885 25.2577 34.8353 24.5941C35.1963 23.9158 35.3768 23.1342 35.3768 22.2493C35.3768 21.3499 35.1963 20.5506 34.8353 19.8509C34.4743 19.1512 33.9647 18.6089 33.3064 18.2234C32.6481 17.838 31.8943 17.6452 31.0449 17.6452H25.9062C25.8726 17.6446 25.8393 17.651 25.8082 17.6639C25.7772 17.6767 25.7491 17.6959 25.7257 17.7202C25.7016 17.7438 25.6826 17.7721 25.6698 17.8034C25.657 17.8347 25.6508 17.8683 25.6513 17.9022V32.3996C25.6513 32.4708 25.6763 32.5318 25.7257 32.5816C25.775 32.6314 25.8356 32.6565 25.9062 32.6565H28.3906V32.6565ZM30.5565 24.3264H28.7516C28.681 24.3264 28.6454 24.2906 28.6454 24.2194V20.3648C28.6454 20.2936 28.681 20.2577 28.7516 20.2577H30.5565C31.1086 20.2577 31.5508 20.4435 31.8837 20.8145C32.2165 21.1855 32.3827 21.6855 32.3827 22.3135C32.3827 22.9276 32.2165 23.4163 31.8837 23.7804C31.5508 24.1444 31.1086 24.3264 30.5565 24.3264V24.3264ZM45.7817 32.6565C45.8153 32.6571 45.8486 32.6508 45.8797 32.6379C45.9107 32.625 45.9388 32.6059 45.9622 32.5816C45.9863 32.558 46.0053 32.5296 46.0181 32.4983C46.0308 32.467 46.0371 32.4334 46.0365 32.3996V30.3224C46.0371 30.2885 46.0308 30.2549 46.0181 30.2236C46.0053 30.1923 45.9863 30.164 45.9622 30.1404C45.9388 30.1161 45.9107 30.0969 45.8797 30.0841C45.8486 30.0712 45.8153 30.0648 45.7817 30.0654H40.0909C40.0202 30.0654 39.9847 30.0296 39.9847 29.9584V26.5107C39.9847 26.4395 40.0202 26.4036 40.0909 26.4036H43.637C43.6706 26.4042 43.7039 26.3979 43.735 26.385C43.766 26.3721 43.7941 26.3529 43.8175 26.3287C43.8416 26.305 43.8606 26.2767 43.8734 26.2454C43.8861 26.2141 43.8924 26.1805 43.8918 26.1466V24.0695C43.8924 24.0356 43.8861 24.002 43.8734 23.9707C43.8606 23.9394 43.8416 23.9111 43.8175 23.8874C43.7941 23.8632 43.766 23.844 43.735 23.8311C43.7039 23.8182 43.6706 23.8119 43.637 23.8125H40.0909C40.0202 23.8125 39.9847 23.7766 39.9847 23.7054V20.3648C39.9847 20.2936 40.0202 20.2577 40.0909 20.2577H45.7817C45.8153 20.2583 45.8486 20.252 45.8797 20.2391C45.9107 20.2262 45.9388 20.2071 45.9622 20.1828C45.9863 20.1592 46.0053 20.1309 46.0181 20.0996C46.0308 20.0682 46.0371 20.0346 46.0365 20.0008V17.9236C46.0371 17.8898 46.0308 17.8561 46.0181 17.8248C46.0053 17.7935 45.9863 17.7652 45.9622 17.7416C45.9388 17.7173 45.9107 17.6982 45.8797 17.6853C45.8486 17.6724 45.8153 17.666 45.7817 17.6666H37.2454C37.2119 17.666 37.1785 17.6724 37.1475 17.6853C37.1164 17.6982 37.0883 17.7173 37.0649 17.7416C37.0409 17.7652 37.0219 17.7935 37.0091 17.8248C36.9963 17.8561 36.99 17.8898 36.9906 17.9236V32.3996C36.9906 32.4708 37.0156 32.5318 37.0649 32.5816C37.1143 32.6314 37.1748 32.6565 37.2454 32.6565H45.7817V32.6565ZM50.5807 32.6565C50.6143 32.6571 50.6476 32.6508 50.6787 32.6379C50.7097 32.625 50.7378 32.6059 50.7612 32.5816C50.7853 32.558 50.8043 32.5296 50.8171 32.4983C50.8299 32.467 50.8361 32.4334 50.8355 32.3996V26.5535C50.8355 26.4823 50.8711 26.4464 50.9417 26.4464H52.2795C52.322 26.4464 52.3575 26.4748 52.3857 26.5321L54.5304 32.4424C54.5728 32.5853 54.6721 32.6565 54.8276 32.6565H57.4183C57.5738 32.6565 57.6518 32.5923 57.6518 32.4638C57.6531 32.4269 57.6458 32.3903 57.6306 32.3567L55.2099 26.2109C55.1817 26.1397 55.203 26.0894 55.2736 26.061C55.9955 25.7328 56.5545 25.2328 56.9511 24.562C57.3477 23.8912 57.5457 23.0989 57.5457 22.185C57.5457 21.3001 57.3689 20.5147 57.0148 19.8295C56.6768 19.1611 56.1529 18.6067 55.5071 18.2341C54.8558 17.8556 54.1126 17.6666 53.2775 17.6666H48.0963C48.0627 17.666 48.0294 17.6724 47.9983 17.6853C47.9673 17.6982 47.9392 17.7173 47.9158 17.7416C47.8917 17.7652 47.8727 17.7935 47.8599 17.8248C47.8472 17.8561 47.8409 17.8898 47.8415 17.9236V32.3996C47.8415 32.4708 47.8664 32.5318 47.9158 32.5816C47.9652 32.6314 48.0257 32.6565 48.0963 32.6565H50.5807ZM52.7891 24.1337H50.9417C50.8711 24.1337 50.8355 24.0978 50.8355 24.0266V20.3648C50.8355 20.2936 50.8711 20.2577 50.9417 20.2577H52.7891C53.3131 20.2577 53.7378 20.4328 54.0632 20.7824C54.3886 21.132 54.5516 21.6068 54.5516 22.2064C54.5516 22.7916 54.3886 23.2595 54.0632 23.6091C53.7378 23.9586 53.3131 24.1337 52.7891 24.1337ZM6.64641 49.9592C8.09036 49.9592 9.24764 49.5775 10.1183 48.8135C10.9889 48.0496 11.4242 47.0185 11.4242 45.7192C11.4242 44.9911 11.2686 44.3701 10.957 43.8561C10.6596 43.3576 10.2661 42.9244 9.79974 42.582C9.33948 42.2463 8.69926 41.8502 7.87801 41.3935L7.43209 41.1365C6.71011 40.7795 6.17235 40.4904 5.81826 40.2693C5.46417 40.0482 5.20246 39.8158 5.03258 39.5733C4.86271 39.3308 4.77777 39.0449 4.77777 38.7167C4.77777 38.2456 4.92269 37.8778 5.21308 37.6139C5.50346 37.35 5.9032 37.2177 6.41283 37.2177C7.02173 37.2177 7.50269 37.3891 7.85678 37.7317C8.21087 38.0743 8.38764 38.5026 8.38764 39.0165V39.402C8.38764 39.4732 8.41259 39.5342 8.46196 39.584C8.51133 39.6338 8.57185 39.659 8.64246 39.659H11.0844C11.118 39.6596 11.1513 39.6532 11.1824 39.6403C11.2134 39.6274 11.2415 39.6083 11.2649 39.584C11.289 39.5604 11.308 39.5321 11.3208 39.5008C11.3336 39.4695 11.3398 39.4358 11.3392 39.402V38.9737C11.3392 38.1171 11.1338 37.3607 10.7234 36.7038C10.3131 36.0469 9.73975 35.5367 9.00345 35.1727C8.26714 34.8087 7.42519 34.6266 6.47653 34.6266C5.57035 34.6266 4.76343 34.7942 4.05579 35.1299C3.34815 35.4655 2.79924 35.9436 2.41011 36.5646C2.02099 37.1856 1.82616 37.91 1.82616 38.7382C1.82616 39.5663 2.01727 40.273 2.3995 40.8582C2.78172 41.4433 3.24198 41.9219 3.77974 42.2929C4.31751 42.6639 5.01135 43.0638 5.86073 43.4921C6.55457 43.8492 7.06738 44.1308 7.40024 44.338C7.73309 44.5451 7.99109 44.7662 8.1753 45.0018C8.35951 45.2373 8.45135 45.5195 8.45135 45.8477C8.45135 46.2904 8.30642 46.6544 8.01604 46.9398C7.72566 47.2251 7.30468 47.3681 6.75258 47.3681C6.12988 47.3681 5.63405 47.2005 5.26616 46.8648C4.89827 46.5292 4.71406 46.1116 4.71406 45.6121V45.2052C4.71466 45.1714 4.70837 45.1378 4.69559 45.1065C4.68281 45.0752 4.6638 45.0468 4.63974 45.0232C4.61633 44.9989 4.58823 44.9798 4.55719 44.9669C4.52615 44.954 4.49282 44.9477 4.45925 44.9483H2.01727C1.98371 44.9477 1.95038 44.954 1.91933 44.9669C1.88829 44.9798 1.86019 44.9989 1.83678 45.0232C1.81272 45.0468 1.79372 45.0752 1.78093 45.1065C1.76815 45.1378 1.76186 45.1714 1.76246 45.2052V45.762C1.76246 46.5902 1.96419 47.3215 2.36764 47.9569C2.7711 48.5924 3.34072 49.0849 4.07703 49.4345C4.81334 49.7841 5.66962 49.9592 6.64641 49.9592V49.9592ZM17.837 49.9592C18.7995 49.9592 19.6489 49.7702 20.3852 49.3917C21.1215 49.0132 21.6911 48.4746 22.0946 47.7749C22.498 47.0752 22.6997 46.269 22.6997 45.3551V45.2909C22.7003 45.257 22.694 45.2234 22.6813 45.1921C22.6685 45.1608 22.6495 45.1325 22.6254 45.1089C22.602 45.0846 22.5739 45.0654 22.5429 45.0525C22.5118 45.0397 22.4785 45.0333 22.4449 45.0339L19.9605 44.9268C19.7906 44.9268 19.7057 45.0055 19.7057 45.1624V45.4408C19.7057 46.0259 19.5358 46.4938 19.196 46.8434C18.8563 47.193 18.4035 47.3681 17.837 47.3681C17.2706 47.3681 16.8178 47.193 16.478 46.8434C16.1383 46.4938 15.9684 46.0259 15.9684 45.4408V39.1664C15.9684 38.5813 16.1383 38.1102 16.478 37.7531C16.8178 37.396 17.2706 37.2177 17.837 37.2177C18.4035 37.2177 18.8563 37.396 19.196 37.7531C19.5358 38.1102 19.7057 38.5813 19.7057 39.1664V39.4448C19.7057 39.6017 19.7906 39.6804 19.9605 39.6804L22.4449 39.5733C22.4794 39.5735 22.5136 39.5659 22.5448 39.5511C22.576 39.5363 22.6036 39.5146 22.6254 39.4877C22.6732 39.435 22.6997 39.3663 22.6997 39.2949V39.1879C22.6997 38.274 22.498 37.4747 22.0946 36.7895C21.6911 36.1042 21.1215 35.5726 20.3852 35.1941C19.6489 34.8156 18.7995 34.6266 17.837 34.6266C16.8746 34.6266 16.0252 34.8194 15.2889 35.2048C14.5526 35.5903 13.983 36.1363 13.5795 36.843C13.176 37.5497 12.9743 38.3672 12.9743 39.2949V45.2481C12.9743 46.1903 13.176 47.0185 13.5795 47.7321C13.9761 48.4393 14.5707 49.0128 15.2889 49.381C16.0252 49.7664 16.8746 49.9592 17.837 49.9592V49.9592ZM27.3501 49.7879C27.3837 49.7885 27.417 49.7821 27.4481 49.7692C27.4791 49.7563 27.5072 49.7372 27.5306 49.7129C27.5547 49.6893 27.5737 49.661 27.5865 49.6297C27.5992 49.5983 27.6055 49.5647 27.6049 49.5309V35.0549C27.6055 35.0211 27.5992 34.9875 27.5865 34.9562C27.5737 34.9249 27.5547 34.8965 27.5306 34.8729C27.5072 34.8486 27.4791 34.8295 27.4481 34.8166C27.417 34.8037 27.3837 34.7974 27.3501 34.798H24.8657C24.8321 34.7974 24.7988 34.8037 24.7677 34.8166C24.7367 34.8295 24.7086 34.8486 24.6852 34.8729C24.6611 34.8965 24.6421 34.9249 24.6293 34.9562C24.6165 34.9875 24.6103 35.0211 24.6109 35.0549V49.5309C24.6109 49.6021 24.6358 49.6631 24.6852 49.7129C24.7345 49.7627 24.7951 49.7879 24.8657 49.7879H27.3501V49.7879ZM34.2938 49.9592C35.7378 49.9592 36.8951 49.5775 37.7657 48.8135C38.6363 48.0496 39.0716 47.0185 39.0716 45.7192C39.0716 44.9911 38.9161 44.3701 38.6044 43.8561C38.3071 43.3576 37.9135 42.9244 37.4472 42.582C36.9869 42.2463 36.3467 41.8502 35.5254 41.3935L35.0795 41.1365C34.3575 40.7795 33.8198 40.4904 33.4657 40.2693C33.1116 40.0482 32.8499 39.8158 32.68 39.5733C32.5101 39.3308 32.4252 39.0449 32.4252 38.7167C32.4252 38.2456 32.5701 37.8778 32.8605 37.6139C33.1509 37.35 33.5506 37.2177 34.0602 37.2177C34.6691 37.2177 35.1501 37.3891 35.5042 37.7317C35.8583 38.0743 36.0351 38.5026 36.0351 39.0165V39.402C36.0351 39.4732 36.06 39.5342 36.1094 39.584C36.1587 39.6338 36.2193 39.659 36.2899 39.659H38.7318C38.7654 39.6596 38.7987 39.6532 38.8298 39.6403C38.8608 39.6274 38.8889 39.6083 38.9123 39.584C38.9364 39.5604 38.9554 39.5321 38.9682 39.5008C38.981 39.4695 38.9873 39.4358 38.9867 39.402V38.9737C38.9867 38.1171 38.7812 37.3607 38.3709 36.7038C37.9605 36.0469 37.3872 35.5367 36.6509 35.1727C35.9145 34.8087 35.0726 34.6266 34.1239 34.6266C33.2178 34.6266 32.4108 34.7942 31.7032 35.1299C30.9956 35.4655 30.4466 35.9436 30.0575 36.5646C29.6684 37.1856 29.4736 37.91 29.4736 38.7382C29.4736 39.5663 29.6647 40.273 30.0469 40.8582C30.4291 41.4433 30.8894 41.9219 31.4271 42.2929C31.9649 42.6639 32.6588 43.0638 33.5081 43.4921C34.202 43.8492 34.7148 44.1308 35.0476 44.338C35.3805 44.5451 35.6385 44.7662 35.8227 45.0018C36.0069 45.2373 36.0988 45.5195 36.0988 45.8477C36.0988 46.2904 35.9538 46.6544 35.6634 46.9398C35.3731 47.2251 34.9521 47.3681 34.4 47.3681C33.7773 47.3681 33.2815 47.2005 32.9136 46.8648C32.5457 46.5292 32.3615 46.1116 32.3615 45.6121V45.2052C32.3621 45.1714 32.3558 45.1378 32.343 45.1065C32.3302 45.0752 32.3112 45.0468 32.2871 45.0232C32.2637 44.9989 32.2356 44.9798 32.2046 44.9669C32.1736 44.954 32.1402 44.9477 32.1067 44.9483H29.6647C29.6311 44.9477 29.5978 44.954 29.5667 44.9669C29.5357 44.9798 29.5076 44.9989 29.4842 45.0232C29.4601 45.0468 29.4411 45.0752 29.4283 45.1065C29.4156 45.1378 29.4093 45.1714 29.4099 45.2052V45.762C29.4099 46.5902 29.6116 47.3215 30.0151 47.9569C30.4185 48.5924 30.9881 49.0849 31.7244 49.4345C32.4607 49.7841 33.317 49.9592 34.2938 49.9592V49.9592ZM45.3358 49.9592C46.7797 49.9592 47.937 49.5775 48.8076 48.8135C49.6783 48.0496 50.1136 47.0185 50.1136 45.7192C50.1136 44.9911 49.958 44.3701 49.6464 43.8561C49.349 43.3576 48.9555 42.9244 48.4891 42.582C48.0289 42.2463 47.3886 41.8502 46.5674 41.3935L46.1215 41.1365C45.3995 40.7795 44.8617 40.4904 44.5076 40.2693C44.1536 40.0482 43.8918 39.8158 43.722 39.5733C43.5521 39.3308 43.4671 39.0449 43.4671 38.7167C43.4671 38.2456 43.6121 37.8778 43.9025 37.6139C44.1928 37.35 44.5926 37.2177 45.1022 37.2177C45.7111 37.2177 46.1921 37.3891 46.5462 37.7317C46.9003 38.0743 47.077 38.5026 47.077 39.0165V39.402C47.077 39.4732 47.102 39.5342 47.1513 39.584C47.2007 39.6338 47.2612 39.659 47.3318 39.659H49.7738C49.8074 39.6596 49.8407 39.6532 49.8718 39.6403C49.9028 39.6274 49.9309 39.6083 49.9543 39.584C49.9784 39.5604 49.9974 39.5321 50.0102 39.5008C50.0229 39.4695 50.0292 39.4358 50.0286 39.402V38.9737C50.0286 38.1171 49.8232 37.3607 49.4128 36.7038C49.0025 36.0469 48.4291 35.5367 47.6928 35.1727C46.9565 34.8087 46.1146 34.6266 45.1659 34.6266C44.2597 34.6266 43.4528 34.7942 42.7452 35.1299C42.0375 35.4655 41.4886 35.9436 41.0995 36.5646C40.7104 37.1856 40.5155 37.91 40.5155 38.7382C40.5155 39.5663 40.7067 40.273 41.0889 40.8582C41.4711 41.4433 41.9314 41.9219 42.4691 42.2929C43.0069 42.6639 43.7007 43.0638 44.5501 43.4921C45.244 43.8492 45.7568 44.1308 46.0896 44.338C46.4225 44.5451 46.6805 44.7662 46.8647 45.0018C47.0489 45.2373 47.1407 45.5195 47.1407 45.8477C47.1407 46.2904 46.9958 46.6544 46.7054 46.9398C46.415 47.2251 45.9941 47.3681 45.442 47.3681C44.8193 47.3681 44.3234 47.2005 43.9555 46.8648C43.5877 46.5292 43.4034 46.1116 43.4034 45.6121V45.2052C43.404 45.1714 43.3978 45.1378 43.385 45.1065C43.3722 45.0752 43.3532 45.0468 43.3291 45.0232C43.3057 44.9989 43.2776 44.9798 43.2466 44.9669C43.2155 44.954 43.1822 44.9477 43.1486 44.9483H40.7067C40.6731 44.9477 40.6398 44.954 40.6087 44.9669C40.5777 44.9798 40.5496 44.9989 40.5262 45.0232C40.5021 45.0468 40.4831 45.0752 40.4703 45.1065C40.4575 45.1378 40.4512 45.1714 40.4518 45.2052V45.762C40.4518 46.5902 40.6536 47.3215 41.057 47.9569C41.4605 48.5924 42.0301 49.0849 42.7664 49.4345C43.5027 49.7841 44.359 49.9592 45.3358 49.9592V49.9592ZM56.5901 49.9806C57.5669 49.9806 58.4306 49.7809 59.1807 49.381C59.9308 48.9811 60.5116 48.4173 60.922 47.6893C61.3323 46.9612 61.5378 46.1116 61.5378 45.141V39.4448C61.5378 38.4881 61.3323 37.646 60.922 36.918C60.5116 36.1899 59.9308 35.6261 59.1807 35.2262C58.4306 34.8263 57.5669 34.6266 56.5901 34.6266C55.6133 34.6266 54.7533 34.8263 54.0101 35.2262C53.2834 35.6098 52.6823 36.1974 52.2795 36.918C51.8691 37.646 51.6637 38.4881 51.6637 39.4448V45.141C51.6637 46.1116 51.8691 46.9612 52.2795 47.6893C52.6823 48.4098 53.2834 48.9974 54.0101 49.381C54.7533 49.7809 55.6133 49.9806 56.5901 49.9806ZM56.5901 47.3895C56.0099 47.3895 55.5427 47.193 55.1886 46.8006C54.8345 46.4082 54.6578 45.8974 54.6578 45.2695V39.3592C54.6578 38.7167 54.8345 38.1991 55.1886 37.8066C55.5427 37.4142 56.0099 37.2177 56.5901 37.2177C57.1847 37.2177 57.6587 37.4142 58.0128 37.8066C58.3669 38.1991 58.5437 38.7167 58.5437 39.3592V45.2695C58.5437 45.8974 58.3669 46.4082 58.0128 46.8006C57.6587 47.193 57.1847 47.3895 56.5901 47.3895ZM66.2731 49.7879C66.3066 49.7885 66.34 49.7821 66.371 49.7692C66.4021 49.7563 66.4302 49.7372 66.4536 49.7129C66.4776 49.6893 66.4966 49.661 66.5094 49.6297C66.5222 49.5983 66.5285 49.5647 66.5279 49.5309V43.6848C66.5279 43.6136 66.5635 43.5778 66.6341 43.5778H67.9718C68.0143 43.5778 68.0499 43.6061 68.078 43.6634L70.2227 49.5737C70.2652 49.7166 70.3644 49.7879 70.52 49.7879H73.1106C73.2661 49.7879 73.3442 49.7236 73.3442 49.5951C73.3454 49.5583 73.3381 49.5216 73.3229 49.4881L70.9022 43.3422C70.8741 43.271 70.8953 43.2207 70.9659 43.1923C71.6879 42.8641 72.2469 42.3641 72.6434 41.6933C73.04 41.0225 73.238 40.2302 73.238 39.3163C73.238 38.4314 73.0612 37.646 72.7071 36.9608C72.3692 36.2924 71.8452 35.738 71.1995 35.3654C70.5481 34.9869 69.8049 34.798 68.9699 34.798H63.7886C63.7551 34.7974 63.7217 34.8037 63.6907 34.8166C63.6596 34.8295 63.6316 34.8486 63.6081 34.8729C63.5841 34.8965 63.5651 34.9249 63.5523 34.9562C63.5395 34.9875 63.5332 35.0211 63.5338 35.0549V49.5309C63.5338 49.6021 63.5588 49.6631 63.6081 49.7129C63.6575 49.7627 63.718 49.7879 63.7886 49.7879H66.2731V49.7879ZM68.4815 41.265H66.6341C66.5635 41.265 66.5279 41.2292 66.5279 41.158V37.4961C66.5279 37.4249 66.5635 37.3891 66.6341 37.3891H68.4815C69.0054 37.3891 69.4301 37.5641 69.7555 37.9137C70.081 38.2633 70.2439 38.7382 70.2439 39.3378C70.2439 39.9229 70.081 40.3908 69.7555 40.7404C69.4301 41.09 69.0054 41.265 68.4815 41.265ZM79.5234 49.9592C80.9674 49.9592 82.1247 49.5775 82.9953 48.8135C83.8659 48.0496 84.3012 47.0185 84.3012 45.7192C84.3012 44.9911 84.1457 44.3701 83.8341 43.8561C83.5367 43.3576 83.1432 42.9244 82.6768 42.582C82.2165 42.2463 81.5763 41.8502 80.755 41.3935L80.3091 41.1365C79.5871 40.7795 79.0494 40.4904 78.6953 40.2693C78.3412 40.0482 78.0795 39.8158 77.9096 39.5733C77.7397 39.3308 77.6548 39.0449 77.6548 38.7167C77.6548 38.2456 77.7997 37.8778 78.0901 37.6139C78.3805 37.35 78.7802 37.2177 79.2899 37.2177C79.8988 37.2177 80.3797 37.3891 80.7338 37.7317C81.0879 38.0743 81.2647 38.5026 81.2647 39.0165V39.402C81.2647 39.4732 81.2896 39.5342 81.339 39.584C81.3884 39.6338 81.4489 39.659 81.5195 39.659H83.9615C83.995 39.6596 84.0284 39.6532 84.0594 39.6403C84.0905 39.6274 84.1185 39.6083 84.142 39.584C84.166 39.5604 84.185 39.5321 84.1978 39.5008C84.2106 39.4695 84.2169 39.4358 84.2163 39.402V38.9737C84.2163 38.1171 84.0108 37.3607 83.6005 36.7038C83.1901 36.0469 82.6168 35.5367 81.8805 35.1727C81.1442 34.8087 80.3022 34.6266 79.3536 34.6266C78.4474 34.6266 77.6405 34.7942 76.9328 35.1299C76.2252 35.4655 75.6763 35.9436 75.2871 36.5646C74.898 37.1856 74.7032 37.91 74.7032 38.7382C74.7032 39.5663 74.8943 40.273 75.2765 40.8582C75.6588 41.4433 76.119 41.9219 76.6568 42.2929C77.1945 42.6639 77.8884 43.0638 78.7378 43.4921C79.4316 43.8492 79.9444 44.1308 80.2773 44.338C80.6101 44.5451 80.8681 44.7662 81.0523 45.0018C81.2365 45.2373 81.3284 45.5195 81.3284 45.8477C81.3284 46.2904 81.1835 46.6544 80.8931 46.9398C80.6027 47.2251 80.1817 47.3681 79.6296 47.3681C79.0069 47.3681 78.5111 47.2005 78.1432 46.8648C77.7753 46.5292 77.5911 46.1116 77.5911 45.6121V45.2052C77.5917 45.1714 77.5854 45.1378 77.5726 45.1065C77.5598 45.0752 77.5408 45.0468 77.5168 45.0232C77.4934 44.9989 77.4653 44.9798 77.4342 44.9669C77.4032 44.954 77.3698 44.9477 77.3363 44.9483H74.8943C74.8607 44.9477 74.8274 44.954 74.7964 44.9669C74.7653 44.9798 74.7372 44.9989 74.7138 45.0232C74.6898 45.0468 74.6707 45.0752 74.658 45.1065C74.6452 45.1378 74.6389 45.1714 74.6395 45.2052V45.762C74.6395 46.5902 74.8412 47.3215 75.2447 47.9569C75.6481 48.5924 76.2178 49.0849 76.9541 49.4345C77.6904 49.7841 78.5467 49.9592 79.5234 49.9592V49.9592Z" fill="black"/>
</g>
<path d="M4.92641 15.5252C4.95998 15.5258 4.99331 15.5195 5.02435 15.5066C5.05539 15.4937 5.08349 15.4745 5.1069 15.4503C5.13096 15.4267 5.14997 15.3983 5.16275 15.367C5.17553 15.3357 5.18182 15.3021 5.18122 15.2683V9.42219C5.18122 9.35099 5.21679 9.31513 5.2874 9.31513H6.62517C6.66764 9.31513 6.70321 9.3435 6.73135 9.40078L8.87604 15.3111C8.91851 15.454 9.01778 15.5252 9.17332 15.5252H11.7639C11.9195 15.5252 11.9975 15.461 11.9975 15.3325C11.9988 15.2956 11.9915 15.259 11.9763 15.2254L9.55555 9.07957C9.52741 9.00837 9.54864 8.95804 9.61925 8.92967C10.3412 8.6015 10.9002 8.10148 11.2968 7.43068C11.6933 6.75988 11.8913 5.96756 11.8913 5.05371C11.8913 4.16877 11.7146 3.38341 11.3605 2.69816C11.0225 2.02979 10.4986 1.47536 9.85283 1.1028C9.20146 0.724306 8.45825 0.535327 7.6232 0.535327H2.44196C2.4084 0.534727 2.37507 0.541067 2.34403 0.553958C2.31298 0.566848 2.28489 0.586015 2.26147 0.610276C2.23741 0.633889 2.21841 0.662221 2.20563 0.693527C2.19284 0.724832 2.18656 0.758446 2.18715 0.792296V15.2683C2.18715 15.3395 2.2121 15.4005 2.26147 15.4503C2.31084 15.5001 2.37136 15.5252 2.44196 15.5252H4.92641V15.5252ZM7.1348 7.0024H5.2874C5.21679 7.0024 5.18122 6.96653 5.18122 6.89533V3.23351C5.18122 3.16231 5.21679 3.12644 5.2874 3.12644H7.1348C7.65877 3.12644 8.08346 3.3015 8.40888 3.65108C8.7343 4.00067 8.89727 4.47553 8.89727 5.07512C8.89727 5.66027 8.7343 6.12816 8.40888 6.47775C8.08346 6.82734 7.65877 7.0024 7.1348 7.0024V7.0024ZM18.3891 15.718C19.3659 15.718 20.2296 15.5183 20.9797 15.1184C21.7299 14.7184 22.3106 14.1547 22.721 13.4266C23.1313 12.6986 23.3368 11.849 23.3368 10.8784V5.1822C23.3368 4.22552 23.1313 3.38341 22.721 2.65533C22.3106 1.92725 21.7299 1.36352 20.9797 0.963609C20.2296 0.5637 19.3659 0.364014 18.3891 0.364014C17.4123 0.364014 16.5523 0.5637 15.8091 0.963609C15.0824 1.34721 14.4813 1.93477 14.0785 2.65533C13.6682 3.38341 13.4627 4.22552 13.4627 5.1822V10.8784C13.4627 11.849 13.6682 12.6986 14.0785 13.4266C14.4813 14.1472 15.0824 14.7348 15.8091 15.1184C16.5523 15.5183 17.4123 15.718 18.3891 15.718V15.718ZM18.3891 13.1268C17.8089 13.1268 17.3417 12.9304 16.9876 12.538C16.6336 12.1455 16.4568 11.6348 16.4568 11.0068V5.09654C16.4568 4.45411 16.6336 3.93643 16.9876 3.54401C17.3417 3.1516 17.8089 2.95512 18.3891 2.95512C18.9837 2.95512 19.4578 3.1516 19.8118 3.54401C20.1659 3.93643 20.3427 4.45411 20.3427 5.09654V11.0068C20.3427 11.6348 20.1659 12.1455 19.8118 12.538C19.4578 12.9304 18.9837 13.1268 18.3891 13.1268V13.1268ZM29.9407 15.6965C30.9032 15.6965 31.7526 15.5076 32.4889 15.1291C33.2252 14.7506 33.7948 14.212 34.1983 13.5123C34.6017 12.8126 34.8034 12.0063 34.8034 11.0925V11.0283C34.804 10.9944 34.7978 10.9608 34.785 10.9295C34.7722 10.8982 34.7532 10.8698 34.7291 10.8462C34.7057 10.822 34.6776 10.8028 34.6466 10.7899C34.6155 10.777 34.5822 10.7707 34.5486 10.7713L32.0642 10.6642C31.8943 10.6642 31.8094 10.7429 31.8094 10.8998V11.1782C31.8094 11.7633 31.6395 12.2312 31.2997 12.5808C30.96 12.9304 30.5072 13.1054 29.9407 13.1054C29.3743 13.1054 28.9215 12.9304 28.5817 12.5808C28.242 12.2312 28.0721 11.7633 28.0721 11.1782V4.90381C28.0721 4.31867 28.242 3.84756 28.5817 3.49048C28.9215 3.1334 29.3743 2.95512 29.9407 2.95512C30.5072 2.95512 30.96 3.1334 31.2997 3.49048C31.6395 3.84756 31.8094 4.31867 31.8094 4.90381V5.1822C31.8094 5.33905 31.8943 5.41775 32.0642 5.41775L34.5486 5.31068C34.5831 5.31088 34.6173 5.30329 34.6485 5.28847C34.6797 5.27365 34.7073 5.25197 34.7291 5.22502C34.7769 5.17241 34.8034 5.10365 34.8034 5.0323V4.92523C34.8034 4.01138 34.6017 3.21209 34.1983 2.52684C33.7948 1.84159 33.2252 1.30998 32.4889 0.931488C31.7526 0.552993 30.9032 0.364014 29.9407 0.364014C28.9783 0.364014 28.1289 0.556741 27.3926 0.942195C26.6563 1.32765 26.0867 1.87371 25.6832 2.58038C25.2797 3.28704 25.078 4.10453 25.078 5.0323V10.9854C25.078 11.9277 25.2797 12.7558 25.6832 13.4695C26.0798 14.1767 26.6744 14.7502 27.3926 15.1184C28.1289 15.5038 28.9783 15.6965 29.9407 15.6965V15.6965ZM39.4538 15.5252C39.4874 15.5258 39.5207 15.5195 39.5518 15.5066C39.5828 15.4937 39.6109 15.4745 39.6343 15.4503C39.6584 15.4267 39.6774 15.3983 39.6902 15.367C39.7029 15.3357 39.7092 15.3021 39.7086 15.2683V10.9854C39.7086 10.9571 39.723 10.9142 39.7511 10.8569L40.7067 9.46502C40.7348 9.4222 40.7635 9.40078 40.7916 9.40078C40.8197 9.40078 40.841 9.4222 40.8553 9.46502L43.8706 15.3325C43.9412 15.461 44.0405 15.5252 44.1679 15.5252H46.8859C47.0415 15.5252 47.1195 15.4679 47.1195 15.3539C47.1143 15.3086 47.0999 15.2648 47.077 15.2254L42.9151 7.13088C42.9008 7.08194 42.9008 7.02992 42.9151 6.98098L46.8434 0.835124C46.9002 0.749468 46.9109 0.678266 46.8753 0.620983C46.8397 0.5637 46.7728 0.535327 46.6736 0.535327H43.9343C43.874 0.534044 43.8145 0.549305 43.7622 0.579478C43.7098 0.609652 43.6665 0.653604 43.637 0.70664L39.836 6.53129C39.8217 6.57411 39.7973 6.58857 39.7617 6.57411C39.7262 6.55966 39.7086 6.53129 39.7086 6.48846V0.792296C39.7092 0.758446 39.7029 0.724832 39.6902 0.693527C39.6774 0.662221 39.6584 0.633889 39.6343 0.610276C39.6109 0.586015 39.5828 0.566848 39.5518 0.553958C39.5207 0.541067 39.4874 0.534727 39.4538 0.535327H36.9694C36.9358 0.534727 36.9025 0.541067 36.8714 0.553958C36.8404 0.566848 36.8123 0.586015 36.7889 0.610276C36.7648 0.633889 36.7458 0.662221 36.733 0.693527C36.7203 0.724832 36.714 0.758446 36.7146 0.792296V15.2683C36.7146 15.3395 36.7395 15.4005 36.7889 15.4503C36.8383 15.5001 36.8988 15.5252 36.9694 15.5252H39.4538V15.5252ZM4.86271 32.6565C4.89627 32.6571 4.9296 32.6508 4.96065 32.6379C4.99169 32.625 5.01979 32.6059 5.0432 32.5816C5.06726 32.558 5.08626 32.5296 5.09905 32.4983C5.11183 32.467 5.11812 32.4334 5.11752 32.3996V26.8319C5.11752 26.7607 5.15309 26.7248 5.22369 26.7248H7.51703C8.36641 26.7248 9.12024 26.5391 9.77851 26.1681C10.4292 25.8047 10.9606 25.2577 11.3074 24.5941C11.6684 23.9158 11.8489 23.1342 11.8489 22.2493C11.8489 21.3499 11.6684 20.5506 11.3074 19.8509C10.9464 19.1512 10.4368 18.6089 9.77851 18.2234C9.12024 17.838 8.36641 17.6452 7.51703 17.6452H2.37826C2.3447 17.6446 2.31136 17.651 2.28032 17.6639C2.24928 17.6767 2.22118 17.6959 2.19777 17.7202C2.17371 17.7438 2.1547 17.7721 2.14192 17.8034C2.12914 17.8347 2.12285 17.8683 2.12345 17.9022V32.3996C2.12345 32.4708 2.1484 32.5318 2.19777 32.5816C2.24714 32.6314 2.30766 32.6565 2.37826 32.6565H4.86271V32.6565ZM7.02863 24.3264H5.22369C5.15309 24.3264 5.11752 24.2906 5.11752 24.2194V20.3648C5.11752 20.2936 5.15309 20.2577 5.22369 20.2577H7.02863C7.58073 20.2577 8.02294 20.4435 8.35579 20.8145C8.68865 21.1855 8.8548 21.6855 8.8548 22.3135C8.8548 22.9276 8.68865 23.4163 8.35579 23.7804C8.02294 24.1444 7.58073 24.3264 7.02863 24.3264V24.3264ZM15.5862 32.6565C15.7279 32.6565 15.8197 32.5853 15.8622 32.4424L16.3506 30.3438C16.3649 30.2865 16.4 30.2582 16.4568 30.2582H20.4276C20.4844 30.2582 20.5195 30.2865 20.5338 30.3438L21.0222 32.4424C21.0647 32.5853 21.164 32.6565 21.3195 32.6565H23.9101C24.0657 32.6565 24.1437 32.5923 24.1437 32.4638L24.1225 32.3782L20.3002 17.8808C20.2578 17.7378 20.1585 17.6666 20.003 17.6666H16.9239C16.7684 17.6666 16.6691 17.7378 16.6267 17.8808L12.8044 32.3782C12.762 32.5639 12.8326 32.6565 13.0168 32.6565H15.5862V32.6565ZM19.8331 27.924H17.0301C16.9991 27.923 16.9692 27.9117 16.9452 27.8919C16.917 27.8705 16.9096 27.8384 16.9239 27.7955L18.3467 21.5854C18.361 21.5281 18.3822 21.4998 18.4104 21.4998C18.4385 21.4998 18.4597 21.5281 18.4741 21.5854L19.9392 27.7955C19.9536 27.8384 19.9461 27.8705 19.918 27.8919C19.894 27.9117 19.8641 27.923 19.8331 27.924V27.924ZM28.3906 32.6565C28.4242 32.6571 28.4575 32.6508 28.4885 32.6379C28.5196 32.625 28.5477 32.6059 28.5711 32.5816C28.5952 32.558 28.6142 32.5296 28.6269 32.4983C28.6397 32.467 28.646 32.4334 28.6454 32.3996V26.8319C28.6454 26.7607 28.681 26.7248 28.7516 26.7248H31.0449C31.8943 26.7248 32.6481 26.5391 33.3064 26.1681C33.9571 25.8047 34.4885 25.2577 34.8353 24.5941C35.1963 23.9158 35.3768 23.1342 35.3768 22.2493C35.3768 21.3499 35.1963 20.5506 34.8353 19.8509C34.4743 19.1512 33.9647 18.6089 33.3064 18.2234C32.6481 17.838 31.8943 17.6452 31.0449 17.6452H25.9062C25.8726 17.6446 25.8393 17.651 25.8082 17.6639C25.7772 17.6767 25.7491 17.6959 25.7257 17.7202C25.7016 17.7438 25.6826 17.7721 25.6698 17.8034C25.657 17.8347 25.6508 17.8683 25.6513 17.9022V32.3996C25.6513 32.4708 25.6763 32.5318 25.7257 32.5816C25.775 32.6314 25.8356 32.6565 25.9062 32.6565H28.3906V32.6565ZM30.5565 24.3264H28.7516C28.681 24.3264 28.6454 24.2906 28.6454 24.2194V20.3648C28.6454 20.2936 28.681 20.2577 28.7516 20.2577H30.5565C31.1086 20.2577 31.5508 20.4435 31.8837 20.8145C32.2165 21.1855 32.3827 21.6855 32.3827 22.3135C32.3827 22.9276 32.2165 23.4163 31.8837 23.7804C31.5508 24.1444 31.1086 24.3264 30.5565 24.3264V24.3264ZM45.7817 32.6565C45.8153 32.6571 45.8486 32.6508 45.8797 32.6379C45.9107 32.625 45.9388 32.6059 45.9622 32.5816C45.9863 32.558 46.0053 32.5296 46.0181 32.4983C46.0308 32.467 46.0371 32.4334 46.0365 32.3996V30.3224C46.0371 30.2885 46.0308 30.2549 46.0181 30.2236C46.0053 30.1923 45.9863 30.164 45.9622 30.1404C45.9388 30.1161 45.9107 30.0969 45.8797 30.0841C45.8486 30.0712 45.8153 30.0648 45.7817 30.0654H40.0909C40.0202 30.0654 39.9847 30.0296 39.9847 29.9584V26.5107C39.9847 26.4395 40.0202 26.4036 40.0909 26.4036H43.637C43.6706 26.4042 43.7039 26.3979 43.735 26.385C43.766 26.3721 43.7941 26.3529 43.8175 26.3287C43.8416 26.305 43.8606 26.2767 43.8734 26.2454C43.8861 26.2141 43.8924 26.1805 43.8918 26.1466V24.0695C43.8924 24.0356 43.8861 24.002 43.8734 23.9707C43.8606 23.9394 43.8416 23.9111 43.8175 23.8874C43.7941 23.8632 43.766 23.844 43.735 23.8311C43.7039 23.8182 43.6706 23.8119 43.637 23.8125H40.0909C40.0202 23.8125 39.9847 23.7766 39.9847 23.7054V20.3648C39.9847 20.2936 40.0202 20.2577 40.0909 20.2577H45.7817C45.8153 20.2583 45.8486 20.252 45.8797 20.2391C45.9107 20.2262 45.9388 20.2071 45.9622 20.1828C45.9863 20.1592 46.0053 20.1309 46.0181 20.0996C46.0308 20.0682 46.0371 20.0346 46.0365 20.0008V17.9236C46.0371 17.8898 46.0308 17.8561 46.0181 17.8248C46.0053 17.7935 45.9863 17.7652 45.9622 17.7416C45.9388 17.7173 45.9107 17.6982 45.8797 17.6853C45.8486 17.6724 45.8153 17.666 45.7817 17.6666H37.2454C37.2119 17.666 37.1785 17.6724 37.1475 17.6853C37.1164 17.6982 37.0883 17.7173 37.0649 17.7416C37.0409 17.7652 37.0219 17.7935 37.0091 17.8248C36.9963 17.8561 36.99 17.8898 36.9906 17.9236V32.3996C36.9906 32.4708 37.0156 32.5318 37.0649 32.5816C37.1143 32.6314 37.1748 32.6565 37.2454 32.6565H45.7817V32.6565ZM50.5807 32.6565C50.6143 32.6571 50.6476 32.6508 50.6787 32.6379C50.7097 32.625 50.7378 32.6059 50.7612 32.5816C50.7853 32.558 50.8043 32.5296 50.8171 32.4983C50.8299 32.467 50.8361 32.4334 50.8355 32.3996V26.5535C50.8355 26.4823 50.8711 26.4464 50.9417 26.4464H52.2795C52.322 26.4464 52.3575 26.4748 52.3857 26.5321L54.5304 32.4424C54.5728 32.5853 54.6721 32.6565 54.8276 32.6565H57.4183C57.5738 32.6565 57.6518 32.5923 57.6518 32.4638C57.6531 32.4269 57.6458 32.3903 57.6306 32.3567L55.2099 26.2109C55.1817 26.1397 55.203 26.0894 55.2736 26.061C55.9955 25.7328 56.5545 25.2328 56.9511 24.562C57.3477 23.8912 57.5457 23.0989 57.5457 22.185C57.5457 21.3001 57.3689 20.5147 57.0148 19.8295C56.6768 19.1611 56.1529 18.6067 55.5071 18.2341C54.8558 17.8556 54.1126 17.6666 53.2775 17.6666H48.0963C48.0627 17.666 48.0294 17.6724 47.9983 17.6853C47.9673 17.6982 47.9392 17.7173 47.9158 17.7416C47.8917 17.7652 47.8727 17.7935 47.8599 17.8248C47.8472 17.8561 47.8409 17.8898 47.8415 17.9236V32.3996C47.8415 32.4708 47.8664 32.5318 47.9158 32.5816C47.9652 32.6314 48.0257 32.6565 48.0963 32.6565H50.5807ZM52.7891 24.1337H50.9417C50.8711 24.1337 50.8355 24.0978 50.8355 24.0266V20.3648C50.8355 20.2936 50.8711 20.2577 50.9417 20.2577H52.7891C53.3131 20.2577 53.7378 20.4328 54.0632 20.7824C54.3886 21.132 54.5516 21.6068 54.5516 22.2064C54.5516 22.7916 54.3886 23.2595 54.0632 23.6091C53.7378 23.9586 53.3131 24.1337 52.7891 24.1337ZM6.64641 49.9592C8.09036 49.9592 9.24764 49.5775 10.1183 48.8135C10.9889 48.0496 11.4242 47.0185 11.4242 45.7192C11.4242 44.9911 11.2686 44.3701 10.957 43.8561C10.6596 43.3576 10.2661 42.9244 9.79974 42.582C9.33948 42.2463 8.69926 41.8502 7.87801 41.3935L7.43209 41.1365C6.71011 40.7795 6.17235 40.4904 5.81826 40.2693C5.46417 40.0482 5.20246 39.8158 5.03258 39.5733C4.86271 39.3308 4.77777 39.0449 4.77777 38.7167C4.77777 38.2456 4.92269 37.8778 5.21308 37.6139C5.50346 37.35 5.9032 37.2177 6.41283 37.2177C7.02173 37.2177 7.50269 37.3891 7.85678 37.7317C8.21087 38.0743 8.38764 38.5026 8.38764 39.0165V39.402C8.38764 39.4732 8.41259 39.5342 8.46196 39.584C8.51133 39.6338 8.57185 39.659 8.64246 39.659H11.0844C11.118 39.6596 11.1513 39.6532 11.1824 39.6403C11.2134 39.6274 11.2415 39.6083 11.2649 39.584C11.289 39.5604 11.308 39.5321 11.3208 39.5008C11.3336 39.4695 11.3398 39.4358 11.3392 39.402V38.9737C11.3392 38.1171 11.1338 37.3607 10.7234 36.7038C10.3131 36.0469 9.73975 35.5367 9.00345 35.1727C8.26714 34.8087 7.42519 34.6266 6.47653 34.6266C5.57035 34.6266 4.76343 34.7942 4.05579 35.1299C3.34815 35.4655 2.79924 35.9436 2.41011 36.5646C2.02099 37.1856 1.82616 37.91 1.82616 38.7382C1.82616 39.5663 2.01727 40.273 2.3995 40.8582C2.78172 41.4433 3.24198 41.9219 3.77974 42.2929C4.31751 42.6639 5.01135 43.0638 5.86073 43.4921C6.55457 43.8492 7.06738 44.1308 7.40024 44.338C7.73309 44.5451 7.99109 44.7662 8.1753 45.0018C8.35951 45.2373 8.45135 45.5195 8.45135 45.8477C8.45135 46.2904 8.30642 46.6544 8.01604 46.9398C7.72566 47.2251 7.30468 47.3681 6.75258 47.3681C6.12988 47.3681 5.63405 47.2005 5.26616 46.8648C4.89827 46.5292 4.71406 46.1116 4.71406 45.6121V45.2052C4.71466 45.1714 4.70837 45.1378 4.69559 45.1065C4.68281 45.0752 4.6638 45.0468 4.63974 45.0232C4.61633 44.9989 4.58823 44.9798 4.55719 44.9669C4.52615 44.954 4.49282 44.9477 4.45925 44.9483H2.01727C1.98371 44.9477 1.95038 44.954 1.91933 44.9669C1.88829 44.9798 1.86019 44.9989 1.83678 45.0232C1.81272 45.0468 1.79372 45.0752 1.78093 45.1065C1.76815 45.1378 1.76186 45.1714 1.76246 45.2052V45.762C1.76246 46.5902 1.96419 47.3215 2.36764 47.9569C2.7711 48.5924 3.34072 49.0849 4.07703 49.4345C4.81334 49.7841 5.66962 49.9592 6.64641 49.9592V49.9592ZM17.837 49.9592C18.7995 49.9592 19.6489 49.7702 20.3852 49.3917C21.1215 49.0132 21.6911 48.4746 22.0946 47.7749C22.498 47.0752 22.6997 46.269 22.6997 45.3551V45.2909C22.7003 45.257 22.694 45.2234 22.6813 45.1921C22.6685 45.1608 22.6495 45.1325 22.6254 45.1089C22.602 45.0846 22.5739 45.0654 22.5429 45.0525C22.5118 45.0397 22.4785 45.0333 22.4449 45.0339L19.9605 44.9268C19.7906 44.9268 19.7057 45.0055 19.7057 45.1624V45.4408C19.7057 46.0259 19.5358 46.4938 19.196 46.8434C18.8563 47.193 18.4035 47.3681 17.837 47.3681C17.2706 47.3681 16.8178 47.193 16.478 46.8434C16.1383 46.4938 15.9684 46.0259 15.9684 45.4408V39.1664C15.9684 38.5813 16.1383 38.1102 16.478 37.7531C16.8178 37.396 17.2706 37.2177 17.837 37.2177C18.4035 37.2177 18.8563 37.396 19.196 37.7531C19.5358 38.1102 19.7057 38.5813 19.7057 39.1664V39.4448C19.7057 39.6017 19.7906 39.6804 19.9605 39.6804L22.4449 39.5733C22.4794 39.5735 22.5136 39.5659 22.5448 39.5511C22.576 39.5363 22.6036 39.5146 22.6254 39.4877C22.6732 39.435 22.6997 39.3663 22.6997 39.2949V39.1879C22.6997 38.274 22.498 37.4747 22.0946 36.7895C21.6911 36.1042 21.1215 35.5726 20.3852 35.1941C19.6489 34.8156 18.7995 34.6266 17.837 34.6266C16.8746 34.6266 16.0252 34.8194 15.2889 35.2048C14.5526 35.5903 13.983 36.1363 13.5795 36.843C13.176 37.5497 12.9743 38.3672 12.9743 39.2949V45.2481C12.9743 46.1903 13.176 47.0185 13.5795 47.7321C13.9761 48.4393 14.5707 49.0128 15.2889 49.381C16.0252 49.7664 16.8746 49.9592 17.837 49.9592V49.9592ZM27.3501 49.7879C27.3837 49.7885 27.417 49.7821 27.4481 49.7692C27.4791 49.7563 27.5072 49.7372 27.5306 49.7129C27.5547 49.6893 27.5737 49.661 27.5865 49.6297C27.5992 49.5983 27.6055 49.5647 27.6049 49.5309V35.0549C27.6055 35.0211 27.5992 34.9875 27.5865 34.9562C27.5737 34.9249 27.5547 34.8965 27.5306 34.8729C27.5072 34.8486 27.4791 34.8295 27.4481 34.8166C27.417 34.8037 27.3837 34.7974 27.3501 34.798H24.8657C24.8321 34.7974 24.7988 34.8037 24.7677 34.8166C24.7367 34.8295 24.7086 34.8486 24.6852 34.8729C24.6611 34.8965 24.6421 34.9249 24.6293 34.9562C24.6165 34.9875 24.6103 35.0211 24.6109 35.0549V49.5309C24.6109 49.6021 24.6358 49.6631 24.6852 49.7129C24.7345 49.7627 24.7951 49.7879 24.8657 49.7879H27.3501V49.7879ZM34.2938 49.9592C35.7378 49.9592 36.8951 49.5775 37.7657 48.8135C38.6363 48.0496 39.0716 47.0185 39.0716 45.7192C39.0716 44.9911 38.9161 44.3701 38.6044 43.8561C38.3071 43.3576 37.9135 42.9244 37.4472 42.582C36.9869 42.2463 36.3467 41.8502 35.5254 41.3935L35.0795 41.1365C34.3575 40.7795 33.8198 40.4904 33.4657 40.2693C33.1116 40.0482 32.8499 39.8158 32.68 39.5733C32.5101 39.3308 32.4252 39.0449 32.4252 38.7167C32.4252 38.2456 32.5701 37.8778 32.8605 37.6139C33.1509 37.35 33.5506 37.2177 34.0602 37.2177C34.6691 37.2177 35.1501 37.3891 35.5042 37.7317C35.8583 38.0743 36.0351 38.5026 36.0351 39.0165V39.402C36.0351 39.4732 36.06 39.5342 36.1094 39.584C36.1587 39.6338 36.2193 39.659 36.2899 39.659H38.7318C38.7654 39.6596 38.7987 39.6532 38.8298 39.6403C38.8608 39.6274 38.8889 39.6083 38.9123 39.584C38.9364 39.5604 38.9554 39.5321 38.9682 39.5008C38.981 39.4695 38.9873 39.4358 38.9867 39.402V38.9737C38.9867 38.1171 38.7812 37.3607 38.3709 36.7038C37.9605 36.0469 37.3872 35.5367 36.6509 35.1727C35.9145 34.8087 35.0726 34.6266 34.1239 34.6266C33.2178 34.6266 32.4108 34.7942 31.7032 35.1299C30.9956 35.4655 30.4466 35.9436 30.0575 36.5646C29.6684 37.1856 29.4736 37.91 29.4736 38.7382C29.4736 39.5663 29.6647 40.273 30.0469 40.8582C30.4291 41.4433 30.8894 41.9219 31.4271 42.2929C31.9649 42.6639 32.6588 43.0638 33.5081 43.4921C34.202 43.8492 34.7148 44.1308 35.0476 44.338C35.3805 44.5451 35.6385 44.7662 35.8227 45.0018C36.0069 45.2373 36.0988 45.5195 36.0988 45.8477C36.0988 46.2904 35.9538 46.6544 35.6634 46.9398C35.3731 47.2251 34.9521 47.3681 34.4 47.3681C33.7773 47.3681 33.2815 47.2005 32.9136 46.8648C32.5457 46.5292 32.3615 46.1116 32.3615 45.6121V45.2052C32.3621 45.1714 32.3558 45.1378 32.343 45.1065C32.3302 45.0752 32.3112 45.0468 32.2871 45.0232C32.2637 44.9989 32.2356 44.9798 32.2046 44.9669C32.1736 44.954 32.1402 44.9477 32.1067 44.9483H29.6647C29.6311 44.9477 29.5978 44.954 29.5667 44.9669C29.5357 44.9798 29.5076 44.9989 29.4842 45.0232C29.4601 45.0468 29.4411 45.0752 29.4283 45.1065C29.4156 45.1378 29.4093 45.1714 29.4099 45.2052V45.762C29.4099 46.5902 29.6116 47.3215 30.0151 47.9569C30.4185 48.5924 30.9881 49.0849 31.7244 49.4345C32.4607 49.7841 33.317 49.9592 34.2938 49.9592V49.9592ZM45.3358 49.9592C46.7797 49.9592 47.937 49.5775 48.8076 48.8135C49.6783 48.0496 50.1136 47.0185 50.1136 45.7192C50.1136 44.9911 49.958 44.3701 49.6464 43.8561C49.349 43.3576 48.9555 42.9244 48.4891 42.582C48.0289 42.2463 47.3886 41.8502 46.5674 41.3935L46.1215 41.1365C45.3995 40.7795 44.8617 40.4904 44.5076 40.2693C44.1536 40.0482 43.8918 39.8158 43.722 39.5733C43.5521 39.3308 43.4671 39.0449 43.4671 38.7167C43.4671 38.2456 43.6121 37.8778 43.9025 37.6139C44.1928 37.35 44.5926 37.2177 45.1022 37.2177C45.7111 37.2177 46.1921 37.3891 46.5462 37.7317C46.9003 38.0743 47.077 38.5026 47.077 39.0165V39.402C47.077 39.4732 47.102 39.5342 47.1513 39.584C47.2007 39.6338 47.2612 39.659 47.3318 39.659H49.7738C49.8074 39.6596 49.8407 39.6532 49.8718 39.6403C49.9028 39.6274 49.9309 39.6083 49.9543 39.584C49.9784 39.5604 49.9974 39.5321 50.0102 39.5008C50.0229 39.4695 50.0292 39.4358 50.0286 39.402V38.9737C50.0286 38.1171 49.8232 37.3607 49.4128 36.7038C49.0025 36.0469 48.4291 35.5367 47.6928 35.1727C46.9565 34.8087 46.1146 34.6266 45.1659 34.6266C44.2597 34.6266 43.4528 34.7942 42.7452 35.1299C42.0375 35.4655 41.4886 35.9436 41.0995 36.5646C40.7104 37.1856 40.5155 37.91 40.5155 38.7382C40.5155 39.5663 40.7067 40.273 41.0889 40.8582C41.4711 41.4433 41.9314 41.9219 42.4691 42.2929C43.0069 42.6639 43.7007 43.0638 44.5501 43.4921C45.244 43.8492 45.7568 44.1308 46.0896 44.338C46.4225 44.5451 46.6805 44.7662 46.8647 45.0018C47.0489 45.2373 47.1407 45.5195 47.1407 45.8477C47.1407 46.2904 46.9958 46.6544 46.7054 46.9398C46.415 47.2251 45.9941 47.3681 45.442 47.3681C44.8193 47.3681 44.3234 47.2005 43.9555 46.8648C43.5877 46.5292 43.4034 46.1116 43.4034 45.6121V45.2052C43.404 45.1714 43.3978 45.1378 43.385 45.1065C43.3722 45.0752 43.3532 45.0468 43.3291 45.0232C43.3057 44.9989 43.2776 44.9798 43.2466 44.9669C43.2155 44.954 43.1822 44.9477 43.1486 44.9483H40.7067C40.6731 44.9477 40.6398 44.954 40.6087 44.9669C40.5777 44.9798 40.5496 44.9989 40.5262 45.0232C40.5021 45.0468 40.4831 45.0752 40.4703 45.1065C40.4575 45.1378 40.4512 45.1714 40.4518 45.2052V45.762C40.4518 46.5902 40.6536 47.3215 41.057 47.9569C41.4605 48.5924 42.0301 49.0849 42.7664 49.4345C43.5027 49.7841 44.359 49.9592 45.3358 49.9592V49.9592ZM56.5901 49.9806C57.5669 49.9806 58.4306 49.7809 59.1807 49.381C59.9308 48.9811 60.5116 48.4173 60.922 47.6893C61.3323 46.9612 61.5378 46.1116 61.5378 45.141V39.4448C61.5378 38.4881 61.3323 37.646 60.922 36.918C60.5116 36.1899 59.9308 35.6261 59.1807 35.2262C58.4306 34.8263 57.5669 34.6266 56.5901 34.6266C55.6133 34.6266 54.7533 34.8263 54.0101 35.2262C53.2834 35.6098 52.6823 36.1974 52.2795 36.918C51.8691 37.646 51.6637 38.4881 51.6637 39.4448V45.141C51.6637 46.1116 51.8691 46.9612 52.2795 47.6893C52.6823 48.4098 53.2834 48.9974 54.0101 49.381C54.7533 49.7809 55.6133 49.9806 56.5901 49.9806ZM56.5901 47.3895C56.0099 47.3895 55.5427 47.193 55.1886 46.8006C54.8345 46.4082 54.6578 45.8974 54.6578 45.2695V39.3592C54.6578 38.7167 54.8345 38.1991 55.1886 37.8066C55.5427 37.4142 56.0099 37.2177 56.5901 37.2177C57.1847 37.2177 57.6587 37.4142 58.0128 37.8066C58.3669 38.1991 58.5437 38.7167 58.5437 39.3592V45.2695C58.5437 45.8974 58.3669 46.4082 58.0128 46.8006C57.6587 47.193 57.1847 47.3895 56.5901 47.3895ZM66.2731 49.7879C66.3066 49.7885 66.34 49.7821 66.371 49.7692C66.4021 49.7563 66.4302 49.7372 66.4536 49.7129C66.4776 49.6893 66.4966 49.661 66.5094 49.6297C66.5222 49.5983 66.5285 49.5647 66.5279 49.5309V43.6848C66.5279 43.6136 66.5635 43.5778 66.6341 43.5778H67.9718C68.0143 43.5778 68.0499 43.6061 68.078 43.6634L70.2227 49.5737C70.2652 49.7166 70.3644 49.7879 70.52 49.7879H73.1106C73.2661 49.7879 73.3442 49.7236 73.3442 49.5951C73.3454 49.5583 73.3381 49.5216 73.3229 49.4881L70.9022 43.3422C70.8741 43.271 70.8953 43.2207 70.9659 43.1923C71.6879 42.8641 72.2469 42.3641 72.6434 41.6933C73.04 41.0225 73.238 40.2302 73.238 39.3163C73.238 38.4314 73.0612 37.646 72.7071 36.9608C72.3692 36.2924 71.8452 35.738 71.1995 35.3654C70.5481 34.9869 69.8049 34.798 68.9699 34.798H63.7886C63.7551 34.7974 63.7217 34.8037 63.6907 34.8166C63.6596 34.8295 63.6316 34.8486 63.6081 34.8729C63.5841 34.8965 63.5651 34.9249 63.5523 34.9562C63.5395 34.9875 63.5332 35.0211 63.5338 35.0549V49.5309C63.5338 49.6021 63.5588 49.6631 63.6081 49.7129C63.6575 49.7627 63.718 49.7879 63.7886 49.7879H66.2731V49.7879ZM68.4815 41.265H66.6341C66.5635 41.265 66.5279 41.2292 66.5279 41.158V37.4961C66.5279 37.4249 66.5635 37.3891 66.6341 37.3891H68.4815C69.0054 37.3891 69.4301 37.5641 69.7555 37.9137C70.081 38.2633 70.2439 38.7382 70.2439 39.3378C70.2439 39.9229 70.081 40.3908 69.7555 40.7404C69.4301 41.09 69.0054 41.265 68.4815 41.265ZM79.5234 49.9592C80.9674 49.9592 82.1247 49.5775 82.9953 48.8135C83.8659 48.0496 84.3012 47.0185 84.3012 45.7192C84.3012 44.9911 84.1457 44.3701 83.8341 43.8561C83.5367 43.3576 83.1432 42.9244 82.6768 42.582C82.2165 42.2463 81.5763 41.8502 80.755 41.3935L80.3091 41.1365C79.5871 40.7795 79.0494 40.4904 78.6953 40.2693C78.3412 40.0482 78.0795 39.8158 77.9096 39.5733C77.7397 39.3308 77.6548 39.0449 77.6548 38.7167C77.6548 38.2456 77.7997 37.8778 78.0901 37.6139C78.3805 37.35 78.7802 37.2177 79.2899 37.2177C79.8988 37.2177 80.3797 37.3891 80.7338 37.7317C81.0879 38.0743 81.2647 38.5026 81.2647 39.0165V39.402C81.2647 39.4732 81.2896 39.5342 81.339 39.584C81.3884 39.6338 81.4489 39.659 81.5195 39.659H83.9615C83.995 39.6596 84.0284 39.6532 84.0594 39.6403C84.0905 39.6274 84.1185 39.6083 84.142 39.584C84.166 39.5604 84.185 39.5321 84.1978 39.5008C84.2106 39.4695 84.2169 39.4358 84.2163 39.402V38.9737C84.2163 38.1171 84.0108 37.3607 83.6005 36.7038C83.1901 36.0469 82.6168 35.5367 81.8805 35.1727C81.1442 34.8087 80.3022 34.6266 79.3536 34.6266C78.4474 34.6266 77.6405 34.7942 76.9328 35.1299C76.2252 35.4655 75.6763 35.9436 75.2871 36.5646C74.898 37.1856 74.7032 37.91 74.7032 38.7382C74.7032 39.5663 74.8943 40.273 75.2765 40.8582C75.6588 41.4433 76.119 41.9219 76.6568 42.2929C77.1945 42.6639 77.8884 43.0638 78.7378 43.4921C79.4316 43.8492 79.9444 44.1308 80.2773 44.338C80.6101 44.5451 80.8681 44.7662 81.0523 45.0018C81.2365 45.2373 81.3284 45.5195 81.3284 45.8477C81.3284 46.2904 81.1835 46.6544 80.8931 46.9398C80.6027 47.2251 80.1817 47.3681 79.6296 47.3681C79.0069 47.3681 78.5111 47.2005 78.1432 46.8648C77.7753 46.5292 77.5911 46.1116 77.5911 45.6121V45.2052C77.5917 45.1714 77.5854 45.1378 77.5726 45.1065C77.5598 45.0752 77.5408 45.0468 77.5168 45.0232C77.4934 44.9989 77.4653 44.9798 77.4342 44.9669C77.4032 44.954 77.3698 44.9477 77.3363 44.9483H74.8943C74.8607 44.9477 74.8274 44.954 74.7964 44.9669C74.7653 44.9798 74.7372 44.9989 74.7138 45.0232C74.6898 45.0468 74.6707 45.0752 74.658 45.1065C74.6452 45.1378 74.6389 45.1714 74.6395 45.2052V45.762C74.6395 46.5902 74.8412 47.3215 75.2447 47.9569C75.6481 48.5924 76.2178 49.0849 76.9541 49.4345C77.6904 49.7841 78.5467 49.9592 79.5234 49.9592V49.9592Z" fill="white"/>
</g>
<defs>
<filter id="filter0_d_28_298" x="-1.23758" y="0.364014" width="88.5388" height="55.6166" filterUnits="userSpaceOnUse" color-interpolation-filters="sRGB">
<feFlood flood-opacity="0" result="BackgroundImageFix"/>
<feColorMatrix in="SourceAlpha" type="matrix" values="0 0 0 0 0 0 0 0 0 0 0 0 0 0 0 0 0 0 127 0" result="hardAlpha"/>
<feOffset dy="3"/>
<feGaussianBlur stdDeviation="1.5"/>
<feColorMatrix type="matrix" values="0 0 0 0 0 0 0 0 0 0 0 0 0 0 0 0 0 0 0.196706 0"/>
<feBlend mode="normal" in2="BackgroundImageFix" result="effect1_dropShadow_28_298"/>
<feBlend mode="normal" in="SourceGraphic" in2="effect1_dropShadow_28_298" result="shape"/>
</filter>
<clipPath id="clip0_28_298">
<rect width="86" height="53" fill="white"/>
</clipPath>
</defs>
</svg>
